<svg width="32" height="32" viewBox="0 0 32 32" fill="none" xmlns="http://www.w3.org/2000/svg">
<rect width="32" height="32" rx="8" fill="white"/>
<path d="M22 15.9999C22 16.1325 21.9473 16.2597 21.8536 16.3534C21.7598 16.4472 21.6326 16.4999 21.5 16.4999H14.5C14.3674 16.4999 14.2402 16.4472 14.1465 16.3534C14.0527 16.2597 14 16.1325 14 15.9999C14 15.8673 14.0527 15.7401 14.1465 15.6463C14.2402 15.5525 14.3674 15.4999 14.5 15.4999H21.5C21.6326 15.4999 21.7598 15.5525 21.8536 15.6463C21.9473 15.7401 22 15.8673 22 15.9999ZM14.5 12.4999H21.5C21.6326 12.4999 21.7598 12.4472 21.8536 12.3534C21.9473 12.2597 22 12.1325 22 11.9999C22 11.8673 21.9473 11.7401 21.8536 11.6463C21.7598 11.5525 21.6326 11.4999 21.5 11.4999H14.5C14.3674 11.4999 14.2402 11.5525 14.1465 11.6463C14.0527 11.7401 14 11.8673 14 11.9999C14 12.1325 14.0527 12.2597 14.1465 12.3534C14.2402 12.4472 14.3674 12.4999 14.5 12.4999ZM21.5 19.4999H14.5C14.3674 19.4999 14.2402 19.5525 14.1465 19.6463C14.0527 19.7401 14 19.8673 14 19.9999C14 20.1325 14.0527 20.2597 14.1465 20.3534C14.2402 20.4472 14.3674 20.4999 14.5 20.4999H21.5C21.6326 20.4999 21.7598 20.4472 21.8536 20.3534C21.9473 20.2597 22 20.1325 22 19.9999C22 19.8673 21.9473 19.7401 21.8536 19.6463C21.7598 19.5525 21.6326 19.4999 21.5 19.4999ZM10.7238 11.4474L11 11.3086V14.4999C11 14.6325 11.0527 14.7597 11.1465 14.8534C11.2402 14.9472 11.3674 14.9999 11.5 14.9999C11.6326 14.9999 11.7598 14.9472 11.8536 14.8534C11.9473 14.7597 12 14.6325 12 14.4999V10.4999C12.0001 10.4146 11.9783 10.3307 11.9368 10.2562C11.8954 10.1817 11.8355 10.1191 11.763 10.0742C11.6904 10.0294 11.6077 10.0038 11.5225 10C11.4373 9.99619 11.3525 10.0142 11.2763 10.0524L10.2763 10.5524C10.1576 10.6117 10.0673 10.7158 10.0254 10.8417C10.0046 10.904 9.99631 10.9698 10.001 11.0353C10.0056 11.1009 10.0231 11.1649 10.0525 11.2236C10.0819 11.2824 10.1226 11.3348 10.1722 11.3778C10.2219 11.4209 10.2795 11.4537 10.3418 11.4745C10.4677 11.5165 10.6051 11.5067 10.7238 11.4474ZM12.9857 17.7949C12.958 17.5968 12.8906 17.4065 12.7875 17.2351C12.6844 17.0638 12.5477 16.9151 12.3857 16.798C12.0611 16.5623 11.658 16.4613 11.2606 16.516C10.8633 16.5708 10.5025 16.7771 10.2538 17.0917C10.1587 17.2138 10.0834 17.3501 10.0307 17.4955C10.0031 17.5581 9.98868 17.6257 9.98829 17.6941C9.9879 17.7625 10.0015 17.8302 10.0284 17.8931C10.0552 17.956 10.0947 18.0128 10.1443 18.0598C10.194 18.1069 10.2527 18.1432 10.317 18.1667C10.3812 18.1901 10.4496 18.2001 10.5179 18.1961C10.5862 18.192 10.6529 18.174 10.7139 18.1431C10.775 18.1123 10.829 18.0692 10.8727 18.0166C10.9165 17.964 10.9489 17.903 10.9682 17.8374C10.9857 17.7894 11.0105 17.7445 11.0419 17.7042C11.1301 17.5943 11.2573 17.5227 11.397 17.5042C11.5367 17.4857 11.6781 17.5217 11.7919 17.6049C11.8466 17.6436 11.8929 17.693 11.9279 17.7502C11.963 17.8073 11.986 17.871 11.9957 17.9374C12.0045 18.0011 12.0003 18.0659 11.9835 18.128C11.9666 18.1901 11.9374 18.2481 11.8975 18.2986C11.8957 18.3008 11.894 18.3031 11.8925 18.3055L10.0994 20.7005C10.0438 20.7748 10.0101 20.8632 10.0018 20.9556C9.99362 21.048 10.0113 21.1409 10.0529 21.2239C10.0944 21.3069 10.1583 21.3766 10.2373 21.4254C10.3162 21.4741 10.4072 21.4999 10.5 21.4999H12.5C12.6326 21.4999 12.7598 21.4472 12.8536 21.3534C12.9473 21.2597 13 21.1325 13 20.9999C13 20.8673 12.9473 20.7401 12.8536 20.6463C12.7598 20.5525 12.6326 20.4999 12.5 20.4999H11.5L12.6925 18.9042C12.8134 18.7485 12.9017 18.57 12.9521 18.3794C13.0024 18.1888 13.0139 17.99 12.9857 17.7949Z" fill="#52545B"/>
</svg>
